<svg width="24" height="24" viewBox="0 0 24 24" fill="none" xmlns="http://www.w3.org/2000/svg">
<path d="M7.49976 18C8.32776 18 8.99976 18.671 8.99976 19.5C8.99976 20.329 8.32776 21 7.49976 21C6.67185 20.9999 5.99976 20.3289 5.99976 19.5C5.99976 18.6711 6.67185 18.0001 7.49976 18ZM17.4998 18C18.3278 18 18.9998 18.671 18.9998 19.5C18.9998 20.329 18.3278 21 17.4998 21C16.6718 20.9999 15.9998 20.3289 15.9998 19.5C15.9998 18.6711 16.6718 18.0001 17.4998 18ZM4.99976 3C5.45076 3 5.8456 3.3023 5.9646 3.7373L6.58179 6H19.3816C20.0796 6 20.7158 6.35424 21.0828 6.94824C21.4496 7.54211 21.4835 8.26869 21.1707 8.89355L17.8943 15.4473C17.7242 15.786 17.3786 16 16.9998 16H7.99976C7.54876 16 7.15391 15.6977 7.03491 15.2627L4.23608 5H2.99976C2.44676 5 1.99976 4.552 1.99976 4C1.99976 3.448 2.44676 3 2.99976 3H4.99976ZM8.76343 14H16.3816L19.3816 8H7.12671L8.76343 14Z" fill="#9B6C59"/>
</svg>
