<svg width="20" height="18" viewBox="0 0 20 18" fill="none" xmlns="http://www.w3.org/2000/svg">
<path d="M5.5 15.0002C6.328 15.0002 7 15.6712 7 16.5002C6.99989 17.3292 6.32793 18.0002 5.5 18.0002C4.67207 18.0002 4.00011 17.3292 4 16.5002C4 15.6712 4.672 15.0002 5.5 15.0002ZM15.5 15.0002C16.328 15.0002 17 15.6712 17 16.5002C16.9999 17.3292 16.3279 18.0002 15.5 18.0002C14.6721 18.0002 14.0001 17.3292 14 16.5002C14 15.6712 14.672 15.0002 15.5 15.0002ZM3 0.000244141C3.451 0.000244141 3.84584 0.302549 3.96484 0.737549L4.58203 3.00024H17.3818C18.0798 3.00024 18.716 3.35449 19.083 3.94849C19.4498 4.54235 19.4827 5.26893 19.1709 5.8938L15.8945 12.4475C15.7245 12.7863 15.3789 13.0002 15 13.0002H6C5.549 13.0002 5.15416 12.6979 5.03516 12.2629L2.23633 2.00024H1C0.447 2.00024 0 1.55224 0 1.00024C1.28713e-07 0.448244 0.447 0.000244141 1 0.000244141H3Z" fill="#6B4B3E"/>
</svg>
